{"title":"Vamp U 2013 WEBRip.XViD-juggs","uid":8160124,"size":747065421,"categoryP":"video","categoryS":"movies","magnet":"?xt=urn:btih:e508ca953a60525a045fb97d21294387f69f49e0&amp;dn=Vamp+U+2013+WEBRip.XViD-juggs&amp;tr=udp%3A%2F%2Ftracker.openbittorrent.com%3A80&amp;tr=udp%3A%2F%2Fopen.demonii.com%3A1337&amp;tr=udp%3A%2F%2Ftracker.coppersurfer.tk%3A6969&amp;tr=udp%3A%2F%2Fexodus.desync.com%3A6969","seeders":0,"leechers":1,"uploader":"juggs99","files":3,"time":1361234668,"description":"Format : AVI\nFormat/Info : Audio Video Interleave\nFile size : 703 MiB\nDuration : 1h 35mn\nOverall bit rate : 1 025 Kbps\nWriting library : VirtualDub build 32842/release\n\nVideo\nID : 0\nFormat : MPEG-4 Visual\nFormat profile : Advanced Simple@L5\nFormat settings, BVOP : 4\nFormat settings, QPel : No\nFormat settings, GMC : No warppoints\nFormat settings, Matrix : Default (H.263)\nMuxing mode : Packed bitstream\nCodec ID : XVID\nCodec ID/Hint : XviD\nDuration : 1h 35mn\nBit rate : 887 Kbps\nWidth : 640 pixels\nHeight : 352 pixels\nDisplay aspect ratio : 16:9\nFrame rate : 23.976 fps\nColor space : YUV\nChroma subsampling : 4:2:0\nBit depth : 8 bits\nScan type : Progressive\nCompression mode : Lossy\nBits/(Pixel*Frame) : 0.164\nStream size : 609 MiB (87%)\nWriting library : XviD 64\n\nAudio\nID : 1\nFormat : MPEG Audio\nFormat version : Version 1\nFormat profile : Layer 3\nCodec ID : 55\nCodec ID/Hint : MP3\nDuration : 1h 35mn\nBit rate mode : Constant\nBit rate : 128 Kbps\nChannel(s) : 2 channels\nSampling rate : 44.1 KHz\nCompression mode : Lossy\nStream size : 87.8 MiB (12%)\nAlignment : Split accross interleaves\nInterleave, duration : 42 ms (1.00 video frame)\nInterleave, preload duration : 500 ms\nWriting library : LAME3.99r\nEncoding settings : -m s -V 4 -q 3 -lowpass 17 -b 128\n\n\nWayne Gretzky (no relation) is a vampire who can't grow his teeth. His impotence began when he inadvertently killed Mary Lipinsky, the love of his life, 300 years ago. To take his mind off the pain, he teaches college history - who better? Attempting to regain his full power, he enlists help from his friend and colleague, Dr. Levine (Gary Cole). Nothing works until a new semester brings freshman Chris Keller. She's a dead ringer for Mary and they have a lurid affair, while rumors fly around the campus. But it all sours when he turns Chris into a vampire and her newfound bloodlust spins out of control in a bloody rampage, making the rumors a little too real\n\n\n &lt;a href=&quot;\nhttp://www.shotpix.com/images/52530880907103822656.png&quot; rel=&quot;nofollow&quot; target=&quot;_NEW&quot;&gt;\nhttp://www.shotpix.com/images/52530880907103822656.png&lt;/a&gt; &lt;a href=&quot;\nhttp://www.shotpix.com/images/83967116370733308424.png&quot; rel=&quot;nofollow&quot; target=&quot;_NEW&quot;&gt;\nhttp://www.shotpix.com/images/83967116370733308424.png&lt;/a&gt; &lt;a href=&quot;\nhttp://www.shotpix.com/images/84323584263708412555.png&quot; rel=&quot;nofollow&quot; target=&quot;_NEW&quot;&gt;\nhttp://www.shotpix.com/images/84323584263708412555.png&lt;/a&gt;","torrent":{"xt":"urn:btih:e508ca953a60525a045fb97d21294387f69f49e0","amp;dn":"Vamp+U+2013+WEBRip.XViD-juggs","amp;tr":["udp%3A%2F%2Ftracker.openbittorrent.com%3A80","udp%3A%2F%2Fopen.demonii.com%3A1337","udp%3A%2F%2Ftracker.coppersurfer.tk%3A6969","udp%3A%2F%2Fexodus.desync.com%3A6969"],"infoHash":"e508ca953a60525a045fb97d21294387f69f49e0","infoHashBuffer":{"type":"Buffer","data":[229,8,202,149,58,96,82,90,4,95,185,125,33,41,67,135,246,159,73,224]},"announce":[],"urlList":[]}}